<svg width="316" height="162" viewBox="0 0 316 162" fill="none" xmlns="http://www.w3.org/2000/svg">
<path d="M299.248 0.158634C299.115 0.291967 291.515 0.691968 282.315 1.09197C266.048 1.75863 248.182 3.49197 230.048 6.0253C225.115 6.8253 218.182 7.35863 214.448 7.35863C210.848 7.35863 207.515 7.89197 207.115 8.4253C206.715 9.09197 210.182 9.2253 214.715 8.95863C227.915 8.0253 222.982 9.6253 203.782 12.692C193.915 14.1586 185.382 15.7586 184.848 16.1586C184.182 16.4253 177.248 18.1586 169.382 19.892C161.515 21.6253 146.582 25.6253 136.315 28.692C126.048 31.7586 113.782 35.3586 108.982 36.692C92.8483 41.2253 47.7817 54.9586 41.915 57.092C39.515 57.892 38.5817 58.8253 39.515 59.7586C40.715 60.9586 47.115 59.492 53.6483 56.692C57.915 54.8253 90.0483 46.1586 100.982 44.0253C106.448 42.9586 121.515 39.6253 134.315 36.692C147.115 33.7586 161.915 30.4253 166.982 29.2253C172.182 28.1586 179.915 26.292 184.315 25.2253C188.715 24.0253 194.982 22.692 198.315 22.0253C204.182 21.092 218.048 18.292 260.982 9.35863C273.115 6.8253 287.915 4.69197 294.048 4.4253C304.848 4.0253 308.315 5.2253 301.382 6.8253C299.248 7.35863 297.115 8.15863 296.315 8.69197C295.648 9.09197 291.115 10.5586 286.315 11.892C281.515 13.2253 276.715 14.8253 275.515 15.3586C274.315 16.0253 270.982 16.9586 268.182 17.492C265.248 17.892 261.248 19.092 258.982 20.0253C256.848 20.9586 250.582 22.8253 245.248 24.0253C239.915 25.3586 235.248 26.8253 234.848 27.492C234.448 28.1586 232.848 28.692 231.248 28.692C229.648 28.692 224.182 30.292 218.982 32.0253C208.982 35.6253 206.315 36.0253 206.315 34.1586C206.315 33.492 208.582 32.4253 211.382 31.6253C221.115 28.8253 226.582 26.4253 229.382 23.3586L232.315 20.4253L221.648 21.2253C209.115 22.292 179.382 29.7586 135.648 42.9586C127.248 45.492 117.915 48.1586 114.982 48.9586C102.715 52.1586 52.0483 69.6253 44.9817 73.092C42.5817 74.4253 40.0483 75.3586 39.3817 75.3586C36.315 75.3586 12.9817 87.892 12.9817 89.492C12.9817 92.8253 15.6483 92.8253 26.715 89.3586C32.8483 87.492 38.4483 86.0253 39.2483 86.0253C40.1817 86.0253 42.1817 85.492 43.915 84.8253C47.3817 83.492 46.8483 83.6253 55.2483 81.492C58.8483 80.5586 63.115 79.3586 64.8483 78.692C66.8483 78.1586 67.6483 78.292 67.115 79.092C66.715 79.7586 64.715 80.8253 62.8483 81.2253C60.9817 81.7586 56.8483 83.2253 53.7817 84.5586C50.8483 85.892 44.715 88.292 40.315 89.892C35.915 91.492 31.3817 93.492 30.315 94.1586C29.2483 94.8253 27.3817 95.7586 26.315 96.1586C25.2483 96.5586 23.115 97.492 21.6483 98.1586C20.0483 98.9586 17.915 99.6253 16.715 99.892C15.3817 100.025 13.3817 101.092 12.0483 102.159C10.715 103.225 7.38166 105.225 4.58166 106.425C1.78166 107.759 -0.351671 109.492 0.0483295 110.425C0.981663 113.225 10.8483 113.092 17.3817 110.025C20.715 108.425 24.5817 107.359 25.915 107.625C27.515 107.892 25.6483 109.359 20.715 111.759C14.9817 114.425 12.9817 116.025 12.9817 118.025C12.9817 120.559 13.6483 120.825 20.715 120.292C24.8483 119.892 30.715 118.692 33.515 117.492C36.4483 116.292 38.9817 115.625 39.2483 115.892C39.6483 116.292 42.5817 115.359 45.7817 113.892C49.115 112.559 55.115 110.425 59.3817 109.359C63.515 108.159 68.8483 106.692 70.9817 106.025C73.2483 105.359 80.4483 103.359 86.9817 101.492C93.6483 99.6253 101.115 97.492 103.648 96.692C106.182 95.892 115.248 93.7586 123.648 91.892C132.048 90.0253 140.182 88.1586 141.648 87.7586C143.115 87.3586 151.782 85.6253 160.982 83.892C170.182 82.1586 178.582 80.292 179.648 79.892C183.782 78.4253 213.382 72.692 214.048 73.3586C214.448 73.7586 214.448 74.1586 214.182 74.4253C213.382 75.092 167.382 90.1586 164.982 90.5586C163.915 90.692 160.715 91.892 158.048 93.092C155.248 94.1586 151.382 95.492 149.248 95.7586C147.115 96.1586 144.315 96.9586 142.848 97.7586C140.048 99.092 132.982 101.625 126.982 103.359C122.048 104.825 94.9817 114.292 85.6483 118.025C84.1817 118.559 76.715 120.959 68.9817 123.359C61.2483 125.892 52.5817 128.825 49.6483 130.159C46.715 131.359 40.9817 133.359 36.9817 134.559C26.5817 137.759 17.7817 142.559 17.2483 145.225C16.8483 147.359 17.3817 147.492 22.4483 146.692C25.515 146.159 30.1817 144.559 32.5817 143.225C34.9817 141.892 37.3817 140.692 38.0483 140.692C40.4483 140.425 45.7817 138.959 46.9817 138.025C47.7817 137.492 50.4483 136.559 52.9817 136.025C55.515 135.492 58.315 134.559 58.9817 134.159C60.315 133.225 71.115 129.625 73.6483 129.225C74.4483 129.225 75.915 128.692 76.9817 128.292C78.0483 127.892 83.2483 126.159 88.315 124.692C93.515 123.092 101.382 120.692 106.048 119.225C110.582 117.892 115.382 116.692 116.715 116.692C118.048 116.692 119.782 116.025 120.582 115.225C121.382 114.425 122.848 114.025 123.915 114.425C124.848 114.692 123.382 116.025 120.315 117.359C117.382 118.692 112.848 120.825 110.182 122.159C107.515 123.625 104.048 124.692 102.582 124.692C100.982 124.692 99.3817 125.225 98.9817 126.025C98.5817 126.692 97.115 127.359 95.915 127.359C92.715 127.359 75.915 135.759 75.115 137.625C74.715 138.559 74.715 140.159 75.115 141.225C76.0483 143.492 84.9817 143.359 94.315 140.825C120.048 134.025 136.315 130.025 138.448 130.025C139.915 130.025 142.182 129.492 143.382 128.825C144.582 128.159 147.515 127.359 149.648 126.959C151.915 126.559 155.782 125.625 158.315 124.825C160.848 124.159 165.115 123.225 167.648 122.825C170.182 122.559 172.582 122.159 172.982 122.025C173.382 121.892 174.315 121.625 174.982 121.492C175.782 121.359 178.848 120.825 182.048 120.159C188.048 119.092 189.248 118.825 202.182 117.359C212.182 116.159 212.448 118.025 202.715 120.692C195.782 122.559 180.315 128.159 176.715 130.159C175.382 130.825 173.115 131.359 171.782 131.359C170.315 131.359 168.848 131.892 168.448 132.425C168.048 133.092 163.248 135.225 157.782 137.359C152.182 139.492 147.648 141.759 147.648 142.292C147.648 142.825 146.448 143.359 144.848 143.359C141.382 143.359 130.848 151.892 129.915 155.359C127.515 164.559 148.448 164.159 202.315 154.025C224.982 149.892 229.648 148.692 230.048 147.492C230.315 146.825 231.648 146.559 232.982 146.959C234.582 147.359 235.648 146.959 235.648 146.025C235.648 145.092 236.582 144.692 237.648 145.225C238.715 145.625 239.648 145.359 239.648 144.692C239.648 142.959 237.382 142.959 231.648 144.692C225.648 146.559 214.982 148.825 208.982 149.492C206.448 149.892 198.982 151.092 192.315 152.292C174.982 155.225 174.182 155.359 168.982 156.025C153.915 157.625 139.782 158.025 136.315 156.959L132.315 155.759L139.648 151.225C143.648 148.692 149.115 145.625 151.648 144.425C158.582 141.092 168.848 136.692 169.515 136.692C169.782 136.692 172.315 135.759 175.115 134.425C180.715 132.025 204.315 123.625 207.782 122.825C212.582 121.625 222.982 115.892 222.582 114.692C221.915 111.892 189.248 114.159 171.648 118.292C168.315 119.092 164.182 119.892 162.582 120.025C158.582 120.559 150.715 122.425 123.648 128.959C111.515 131.892 100.448 134.425 98.9817 134.692C97.515 134.825 94.5817 135.759 92.5817 136.559C90.4483 137.359 87.6483 138.025 86.1817 138.025C81.2483 138.025 84.8483 135.759 93.2483 133.359C97.915 132.159 101.915 130.692 102.315 130.159C103.115 129.225 114.848 124.025 125.648 119.892C127.115 119.359 128.582 118.825 128.982 118.825C129.782 118.559 145.915 112.825 149.648 111.359C151.115 110.825 154.715 109.359 157.648 108.159C164.182 105.625 192.582 95.892 201.648 93.2253C205.382 92.1586 214.315 89.3586 221.648 87.2253C238.315 82.1586 240.982 81.092 240.982 79.2253C240.982 77.2253 232.448 78.8253 218.315 83.3586C194.848 90.9586 185.115 93.892 167.648 98.5586C157.782 101.359 147.515 104.159 144.848 104.959C142.182 105.625 138.982 106.025 137.515 105.759C136.182 105.492 140.315 103.625 146.982 101.492C153.648 99.492 162.048 96.5586 165.915 95.092C169.782 93.6253 175.782 91.6253 179.248 90.692C182.715 89.7586 190.715 87.092 196.982 84.9586C203.248 82.692 217.382 78.1586 228.315 74.692C239.382 71.3586 249.115 68.292 250.048 68.0253C251.915 67.3586 253.648 63.6253 252.582 62.5586C252.182 62.1586 249.648 62.4253 246.848 63.2253C243.915 63.892 238.982 64.8253 235.648 65.2253C228.582 66.0253 200.315 70.9586 197.248 71.892C195.915 72.292 192.848 72.9586 190.315 73.3586C187.782 73.7586 183.915 74.692 181.648 75.3586C179.515 76.0253 175.515 76.692 172.982 76.9586C170.448 77.092 167.782 77.6253 166.982 78.0253C166.315 78.5586 161.782 79.6253 156.982 80.5586C143.382 82.9586 123.382 87.3586 119.648 88.692C117.782 89.3586 114.582 90.1586 112.315 90.5586C110.182 90.8253 103.782 92.4253 98.315 93.892C92.8483 95.492 85.6483 97.3586 82.315 98.1586C78.9817 98.9586 75.3817 100.025 74.315 100.559C73.115 101.225 70.1817 102.159 67.6483 102.559C65.115 103.092 61.7817 104.025 60.315 104.559C58.8483 105.225 54.9817 106.425 51.6483 107.359C48.315 108.292 41.2483 110.559 35.915 112.292C24.715 115.892 22.0483 116.159 25.7817 113.359C27.115 112.292 29.515 111.359 30.8483 111.359C32.315 111.359 34.4483 110.425 35.6483 109.359C36.8483 108.292 38.9817 107.225 40.4483 106.959C43.515 106.292 48.1817 104.425 55.915 100.692C58.9817 99.2253 62.0483 98.0253 62.715 98.0253C63.2483 98.0253 66.9817 96.5586 70.9817 94.8253C74.8483 92.9586 81.6483 90.5586 85.915 89.2253C90.1817 88.0253 94.315 86.5586 94.9817 85.892C95.7817 85.3586 102.048 82.9586 108.982 80.692C115.915 78.4253 123.248 75.7586 125.248 74.692C127.115 73.6253 129.648 72.692 130.848 72.692C132.048 72.692 134.048 72.1586 135.382 71.492C139.648 69.3586 149.115 65.6253 150.982 65.3586C153.915 64.9586 164.448 61.492 165.782 60.4253C167.515 59.092 202.982 47.7586 208.048 46.8253C208.982 46.692 214.448 44.9586 220.315 43.092C226.182 41.092 234.182 38.8253 238.182 37.892C244.582 36.292 247.915 33.7586 245.915 31.892C244.982 30.9586 234.582 33.6253 220.315 38.292C213.782 40.5586 206.582 42.5586 204.315 42.9586C202.182 43.3586 198.848 44.4253 196.982 45.3586C195.115 46.292 191.515 47.492 188.982 48.0253C186.448 48.4253 181.915 49.7586 178.982 50.692C176.048 51.6253 169.115 53.7586 163.648 55.3586C144.315 60.8253 118.848 68.9586 104.715 74.1586C96.8483 76.9586 89.7817 79.3586 88.9817 79.3586C88.1817 79.3586 86.5817 79.892 85.2483 80.5586C84.0483 81.2253 79.3817 82.8253 74.9817 84.1586C70.5817 85.492 66.4483 87.092 65.7817 87.6253C64.9817 88.1586 63.2483 88.692 61.6483 88.692C60.0483 88.692 58.0483 89.492 57.115 90.292C55.6483 91.7586 55.3817 91.6253 55.915 90.1586C56.1817 89.092 60.5817 86.8253 65.7817 85.092C70.8483 83.492 76.0483 81.492 77.2483 80.692C78.5817 80.0253 80.715 79.3586 82.0483 79.3586C83.3817 79.3586 84.9817 78.8253 85.6483 78.1586C86.4483 77.6253 90.315 76.0253 94.315 74.692C102.582 72.0253 107.248 70.292 110.582 68.5586C111.915 67.892 113.782 67.3586 114.715 67.3586C115.648 67.3586 118.982 66.1586 122.048 64.692C126.982 62.292 137.382 59.092 168.982 50.4253C178.315 47.892 192.182 43.892 204.982 39.892C210.448 38.292 218.582 35.892 222.982 34.692C227.382 33.3586 236.715 30.5586 243.648 28.4253C250.582 26.292 258.182 24.0253 260.315 23.3586C272.715 19.892 296.848 12.292 300.315 10.692C302.582 9.75863 305.782 8.55863 307.648 8.0253C311.248 6.95863 315.648 3.6253 315.648 1.89197C315.648 1.09197 300.048 -0.508033 299.248 0.158634ZM239.648 11.2253C239.648 12.1586 232.315 13.7586 216.315 16.1586C214.182 16.5586 210.582 17.3586 208.315 18.0253C206.182 18.5586 202.182 19.492 199.648 19.892C190.848 21.3586 171.648 25.7586 145.648 32.1586C124.448 37.3586 122.315 35.6253 142.982 30.0253C148.848 28.4253 155.782 26.5586 158.315 25.892C165.515 23.7586 179.515 20.5586 187.648 19.2253C191.648 18.5586 203.648 16.292 214.315 14.1586C235.515 9.89197 239.648 9.49197 239.648 11.2253ZM208.982 28.0253C208.048 29.092 204.848 30.692 201.782 31.6253C198.848 32.4253 195.782 33.6253 194.982 34.0253C194.315 34.5586 191.248 35.7586 188.315 36.5586C185.382 37.492 181.782 38.692 180.315 39.2253C166.048 44.9586 124.315 59.092 110.982 62.8253C96.8483 66.692 84.5817 69.892 72.315 73.092C65.7817 74.8253 54.715 77.892 47.915 79.892C34.8483 83.7586 29.515 84.0253 36.8483 80.292C39.3817 79.092 42.0483 78.0253 42.8483 78.0253C43.6483 78.0253 47.3817 76.5586 50.9817 74.692C54.715 72.9586 58.9817 71.3586 60.5817 71.3586C62.1817 71.3586 63.6483 70.9586 63.915 70.292C64.315 69.2253 107.515 54.5586 112.982 53.492C114.848 53.2253 118.715 52.0253 121.648 50.9586C129.382 48.1586 148.982 42.4253 155.648 41.092C157.515 40.8253 160.182 40.0253 161.648 39.3586C164.982 37.892 176.048 34.8253 177.115 35.092C177.648 35.2253 181.248 34.0253 185.115 32.692C189.115 31.2253 193.782 30.0253 195.648 30.0253C197.515 30.0253 199.648 29.492 200.448 28.8253C201.515 27.7586 203.782 27.092 209.515 26.1586C210.182 26.1586 209.915 26.9586 208.982 28.0253ZM202.315 36.692C202.315 37.3586 201.782 38.0253 200.982 38.0253C200.315 38.0253 199.648 37.3586 199.648 36.692C199.648 35.892 200.315 35.3586 200.982 35.3586C201.782 35.3586 202.315 35.892 202.315 36.692ZM218.982 72.692C218.582 73.3586 217.515 74.0253 216.848 74.0253C216.048 74.0253 215.915 73.3586 216.315 72.692C216.715 71.892 217.782 71.3586 218.448 71.3586C219.248 71.3586 219.382 71.892 218.982 72.692ZM72.9817 78.0253C70.315 79.7586 68.5817 79.7586 69.6483 78.0253C70.0483 77.2253 71.515 76.692 72.715 76.692C74.715 76.692 74.715 76.9586 72.9817 78.0253ZM52.315 91.7586C50.8483 92.692 44.5817 95.492 38.315 97.892C22.1817 104.292 22.715 104.025 24.715 101.892C25.6483 100.825 31.915 97.892 38.715 95.092C51.6483 90.0253 56.8483 88.692 52.315 91.7586ZM68.9817 91.3586C67.915 92.0253 66.4483 92.692 65.6483 92.692C64.9817 92.692 65.2483 92.0253 66.315 91.3586C67.3817 90.692 68.9817 90.0253 69.6483 90.0253C70.4483 90.0253 70.0483 90.692 68.9817 91.3586ZM38.315 103.359C38.315 104.025 37.7817 104.692 36.9817 104.692C36.315 104.692 35.6483 104.025 35.6483 103.359C35.6483 102.559 36.315 102.025 36.9817 102.025C37.7817 102.025 38.315 102.559 38.315 103.359ZM32.9817 105.359C32.0483 106.425 30.5817 107.359 29.7817 107.359C28.9817 107.359 29.515 106.425 30.8483 105.359C34.1817 102.825 35.115 102.825 32.9817 105.359ZM134.315 106.559C134.315 106.959 133.782 107.625 132.982 108.025C132.315 108.425 131.648 108.159 131.648 107.492C131.648 106.692 132.315 106.025 132.982 106.025C133.782 106.025 134.315 106.292 134.315 106.559ZM128.982 108.692C128.982 109.359 128.048 110.025 126.848 110.025C125.782 110.025 125.248 109.359 125.648 108.692C126.048 107.892 126.982 107.359 127.782 107.359C128.448 107.359 128.982 107.892 128.982 108.692ZM116.982 112.692C114.448 114.425 112.982 114.425 112.982 112.692C112.982 111.892 114.315 111.359 116.048 111.359C118.448 111.359 118.582 111.625 116.982 112.692Z" fill="#D03715"/>
</svg>
