<svg width="35" height="35" viewBox="0 0 35 35" fill="none" xmlns="http://www.w3.org/2000/svg">
<rect width="35" height="35" rx="17.5" fill="#FF0000"/>
<path d="M6.34229 10.725H6.84229H9.14026H9.47579L9.60296 11.0355L13.2092 19.8409L16.8154 11.0355L16.9426 10.725H17.2781H17.5588H18.0588H19.0931H19.8411H22.2504C23.5482 10.725 24.6931 10.9905 25.6652 11.5438C26.6363 12.0925 27.3805 12.8839 27.8931 13.9042C28.4101 14.9208 28.6577 16.1192 28.6577 17.4816C28.6577 18.8488 28.4078 20.0533 27.8868 21.0778M6.34229 10.725L27.4407 20.852M6.34229 10.725V11.225V23.775V24.275H6.84229H8.6439H9.1439V23.775V16.9504L6.34229 10.725ZM27.8868 21.0778C27.8867 21.0781 27.8865 21.0784 27.8864 21.0787L27.4407 20.852M27.8868 21.0778C27.8869 21.0776 27.887 21.0774 27.8871 21.0771L27.4407 20.852M27.8868 21.0778C27.3692 22.1037 26.614 22.9007 25.6272 23.4568L25.6257 23.4577C24.6366 24.0107 23.4616 24.275 22.1217 24.275H20.0903H19.5903V23.775V22.1205V21.6205H20.0903H22.0175C22.9126 21.6205 23.6154 21.4521 24.1533 21.147M27.4407 20.852C26.9668 21.7916 26.2805 22.5147 25.3817 23.0213C24.483 23.5238 23.3963 23.775 22.1217 23.775H20.5903H20.0903V23.275V22.6205V22.1205H20.5903H22.0175C22.9734 22.1205 23.768 21.9407 24.4013 21.5812M24.1533 21.147C24.153 21.1472 24.1526 21.1474 24.1523 21.1476L24.4013 21.5812M24.1533 21.147C24.6924 20.8372 25.0957 20.3928 25.3683 19.7982M24.1533 21.147C24.1537 21.1468 24.154 21.1466 24.1544 21.1464L24.4013 21.5812M24.4013 21.5812C25.0345 21.2176 25.5084 20.6927 25.8229 20.0063M18.552 11.225L18.6311 11.0338L19.0931 11.225H19.6342H18.552ZM18.552 11.225H18.0588H17.5588H18.552ZM13.2827 20.9204L13.3124 20.9083L13.4794 20.5006H12.939L13.106 20.9083L13.1357 20.9204M13.2827 20.9204V20.4807H13.1357V20.9204M13.2827 20.9204L13.2092 20.9505M13.2827 20.9204V20.9807L13.2092 20.9505M13.1357 20.9204V20.9807L13.2092 20.9505M13.1357 20.9204L13.2092 20.9505M25.3683 19.7982C25.3682 19.7985 25.3681 19.7987 25.3679 19.799L25.8229 20.0063M25.3683 19.7982C25.3683 19.7981 25.3684 19.7981 25.3684 19.798L25.8229 20.0063M25.3683 19.7982L25.8229 20.0063M18.2017 13.3795L18.4086 12.8795H18.5588H18.9497L18.7428 13.3795H18.2017ZM18.121 14.8824L17.6581 14.6934L18.1201 14.8846L18.121 14.8824Z" fill="white" stroke="white"/>
</svg>
