<svg width="1378" height="75" viewBox="0 0 1378 75" fill="none" xmlns="http://www.w3.org/2000/svg">
<g clip-path="url(#clip0_712_338)">
<g clip-path="url(#clip1_712_338)">
<line x1="70.1293" y1="130.212" x2="-134.979" y2="-54.4684" stroke="#FF0000"/>
<line x1="86.2372" y1="130.212" x2="-118.871" y2="-54.4684" stroke="#FF0000"/>
<line x1="102.345" y1="130.212" x2="-102.763" y2="-54.4684" stroke="#FF0000"/>
<line x1="118.453" y1="130.212" x2="-86.6549" y2="-54.4684" stroke="#FF0000"/>
<line x1="134.561" y1="130.212" x2="-70.547" y2="-54.4684" stroke="#FF0000"/>
<line x1="150.669" y1="130.212" x2="-54.4391" y2="-54.4684" stroke="#FF0000"/>
<line x1="166.777" y1="130.212" x2="-38.3312" y2="-54.4684" stroke="#FF0000"/>
<line x1="182.885" y1="130.212" x2="-22.2233" y2="-54.4684" stroke="#FF0000"/>
<line x1="198.993" y1="130.212" x2="-6.11538" y2="-54.4684" stroke="#FF0000"/>
<line x1="215.1" y1="130.212" x2="9.99253" y2="-54.4684" stroke="#FF0000"/>
<line x1="231.208" y1="130.212" x2="26.1004" y2="-54.4684" stroke="#FF0000"/>
<line x1="247.316" y1="130.212" x2="42.2083" y2="-54.4684" stroke="#FF0000"/>
<line x1="263.424" y1="130.212" x2="58.3163" y2="-54.4684" stroke="#FF0000"/>
<line x1="279.532" y1="130.212" x2="74.4242" y2="-54.4684" stroke="#FF0000"/>
<line x1="295.64" y1="130.212" x2="90.5321" y2="-54.4684" stroke="#FF0000"/>
<line x1="311.748" y1="130.212" x2="106.64" y2="-54.4684" stroke="#FF0000"/>
<line x1="327.856" y1="130.212" x2="122.748" y2="-54.4684" stroke="#FF0000"/>
<line x1="343.964" y1="130.212" x2="138.856" y2="-54.4684" stroke="#FF0000"/>
<line x1="360.072" y1="130.212" x2="154.964" y2="-54.4684" stroke="#FF0000"/>
<line x1="376.18" y1="130.212" x2="171.072" y2="-54.4684" stroke="#FF0000"/>
<line x1="392.288" y1="130.212" x2="187.18" y2="-54.4684" stroke="#FF0000"/>
<line x1="408.395" y1="130.212" x2="203.287" y2="-54.4684" stroke="#FF0000"/>
<line x1="424.503" y1="130.212" x2="219.395" y2="-54.4684" stroke="#FF0000"/>
<line x1="440.611" y1="130.212" x2="235.503" y2="-54.4684" stroke="#FF0000"/>
<line x1="456.719" y1="130.212" x2="251.611" y2="-54.4684" stroke="#FF0000"/>
<line x1="472.827" y1="130.212" x2="267.719" y2="-54.4684" stroke="#FF0000"/>
<line x1="488.935" y1="130.212" x2="283.827" y2="-54.4684" stroke="#FF0000"/>
<line x1="505.043" y1="130.212" x2="299.935" y2="-54.4684" stroke="#FF0000"/>
<line x1="521.151" y1="130.212" x2="316.043" y2="-54.4684" stroke="#FF0000"/>
<line x1="537.259" y1="130.212" x2="332.151" y2="-54.4684" stroke="#FF0000"/>
<line x1="553.367" y1="130.212" x2="348.259" y2="-54.4684" stroke="#FF0000"/>
<line x1="569.475" y1="130.212" x2="364.367" y2="-54.4684" stroke="#FF0000"/>
<line x1="585.582" y1="130.212" x2="380.474" y2="-54.4684" stroke="#FF0000"/>
<line x1="601.69" y1="130.212" x2="396.582" y2="-54.4684" stroke="#FF0000"/>
<line x1="617.798" y1="130.212" x2="412.69" y2="-54.4684" stroke="#FF0000"/>
<line x1="633.906" y1="130.212" x2="428.798" y2="-54.4684" stroke="#FF0000"/>
<line x1="650.014" y1="130.212" x2="444.906" y2="-54.4684" stroke="#FF0000"/>
<line x1="666.122" y1="130.212" x2="461.014" y2="-54.4684" stroke="#FF0000"/>
<line x1="682.23" y1="130.212" x2="477.122" y2="-54.4684" stroke="#FF0000"/>
<line x1="698.338" y1="130.212" x2="493.23" y2="-54.4684" stroke="#FF0000"/>
<line x1="714.446" y1="130.212" x2="509.338" y2="-54.4684" stroke="#FF0000"/>
<line x1="730.554" y1="130.212" x2="525.446" y2="-54.4684" stroke="#FF0000"/>
<line x1="746.662" y1="130.212" x2="541.554" y2="-54.4684" stroke="#FF0000"/>
<line x1="762.769" y1="130.212" x2="557.661" y2="-54.4684" stroke="#FF0000"/>
<line x1="778.877" y1="130.212" x2="573.769" y2="-54.4684" stroke="#FF0000"/>
<line x1="794.985" y1="130.212" x2="589.877" y2="-54.4684" stroke="#FF0000"/>
<line x1="811.093" y1="130.212" x2="605.985" y2="-54.4684" stroke="#FF0000"/>
<line x1="827.201" y1="130.212" x2="622.093" y2="-54.4684" stroke="#FF0000"/>
<line x1="843.309" y1="130.212" x2="638.201" y2="-54.4684" stroke="#FF0000"/>
</g>
<g clip-path="url(#clip2_712_338)">
<line x1="779.129" y1="130.212" x2="574.021" y2="-54.4684" stroke="#FF0000"/>
<line x1="795.237" y1="130.212" x2="590.129" y2="-54.4684" stroke="#FF0000"/>
<line x1="811.345" y1="130.212" x2="606.237" y2="-54.4684" stroke="#FF0000"/>
<line x1="827.453" y1="130.212" x2="622.345" y2="-54.4684" stroke="#FF0000"/>
<line x1="843.561" y1="130.212" x2="638.453" y2="-54.4684" stroke="#FF0000"/>
<line x1="859.669" y1="130.212" x2="654.561" y2="-54.4684" stroke="#FF0000"/>
<line x1="875.777" y1="130.212" x2="670.669" y2="-54.4684" stroke="#FF0000"/>
<line x1="891.885" y1="130.212" x2="686.777" y2="-54.4684" stroke="#FF0000"/>
<line x1="907.993" y1="130.212" x2="702.885" y2="-54.4684" stroke="#FF0000"/>
<line x1="924.1" y1="130.212" x2="718.993" y2="-54.4684" stroke="#FF0000"/>
<line x1="940.208" y1="130.212" x2="735.1" y2="-54.4684" stroke="#FF0000"/>
<line x1="956.316" y1="130.212" x2="751.208" y2="-54.4684" stroke="#FF0000"/>
<line x1="972.424" y1="130.212" x2="767.316" y2="-54.4684" stroke="#FF0000"/>
<line x1="988.532" y1="130.212" x2="783.424" y2="-54.4684" stroke="#FF0000"/>
<line x1="1004.64" y1="130.212" x2="799.532" y2="-54.4684" stroke="#FF0000"/>
<line x1="1020.75" y1="130.212" x2="815.64" y2="-54.4684" stroke="#FF0000"/>
<line x1="1036.86" y1="130.212" x2="831.748" y2="-54.4684" stroke="#FF0000"/>
<line x1="1052.96" y1="130.212" x2="847.856" y2="-54.4684" stroke="#FF0000"/>
<line x1="1069.07" y1="130.212" x2="863.964" y2="-54.4684" stroke="#FF0000"/>
<line x1="1085.18" y1="130.212" x2="880.072" y2="-54.4684" stroke="#FF0000"/>
<line x1="1101.29" y1="130.212" x2="896.18" y2="-54.4684" stroke="#FF0000"/>
<line x1="1117.4" y1="130.212" x2="912.287" y2="-54.4684" stroke="#FF0000"/>
<line x1="1133.5" y1="130.212" x2="928.395" y2="-54.4684" stroke="#FF0000"/>
<line x1="1149.61" y1="130.212" x2="944.503" y2="-54.4684" stroke="#FF0000"/>
<line x1="1165.72" y1="130.212" x2="960.611" y2="-54.4684" stroke="#FF0000"/>
<line x1="1181.83" y1="130.212" x2="976.719" y2="-54.4684" stroke="#FF0000"/>
<line x1="1197.93" y1="130.212" x2="992.827" y2="-54.4684" stroke="#FF0000"/>
<line x1="1214.04" y1="130.212" x2="1008.93" y2="-54.4684" stroke="#FF0000"/>
<line x1="1230.15" y1="130.212" x2="1025.04" y2="-54.4684" stroke="#FF0000"/>
<line x1="1246.26" y1="130.212" x2="1041.15" y2="-54.4684" stroke="#FF0000"/>
<line x1="1262.37" y1="130.212" x2="1057.26" y2="-54.4684" stroke="#FF0000"/>
<line x1="1278.47" y1="130.212" x2="1073.37" y2="-54.4684" stroke="#FF0000"/>
<line x1="1294.58" y1="130.212" x2="1089.47" y2="-54.4684" stroke="#FF0000"/>
<line x1="1310.69" y1="130.212" x2="1105.58" y2="-54.4684" stroke="#FF0000"/>
<line x1="1326.8" y1="130.212" x2="1121.69" y2="-54.4684" stroke="#FF0000"/>
<line x1="1342.91" y1="130.212" x2="1137.8" y2="-54.4684" stroke="#FF0000"/>
<line x1="1359.01" y1="130.212" x2="1153.91" y2="-54.4684" stroke="#FF0000"/>
<line x1="1375.12" y1="130.212" x2="1170.01" y2="-54.4684" stroke="#FF0000"/>
<line x1="1391.23" y1="130.212" x2="1186.12" y2="-54.4684" stroke="#FF0000"/>
<line x1="1407.34" y1="130.212" x2="1202.23" y2="-54.4684" stroke="#FF0000"/>
<line x1="1423.45" y1="130.212" x2="1218.34" y2="-54.4684" stroke="#FF0000"/>
<line x1="1439.55" y1="130.212" x2="1234.45" y2="-54.4684" stroke="#FF0000"/>
<line x1="1455.66" y1="130.212" x2="1250.55" y2="-54.4684" stroke="#FF0000"/>
<line x1="1471.77" y1="130.212" x2="1266.66" y2="-54.4684" stroke="#FF0000"/>
<line x1="1487.88" y1="130.212" x2="1282.77" y2="-54.4684" stroke="#FF0000"/>
<line x1="1503.99" y1="130.212" x2="1298.88" y2="-54.4684" stroke="#FF0000"/>
<line x1="1520.09" y1="130.212" x2="1314.99" y2="-54.4684" stroke="#FF0000"/>
<line x1="1536.2" y1="130.212" x2="1331.09" y2="-54.4684" stroke="#FF0000"/>
<line x1="1552.31" y1="130.212" x2="1347.2" y2="-54.4684" stroke="#FF0000"/>
</g>
</g>
<defs>
<clipPath id="clip0_712_338">
<rect width="1378" height="75" fill="white"/>
</clipPath>
<clipPath id="clip1_712_338">
<rect width="709" height="75" fill="white"/>
</clipPath>
<clipPath id="clip2_712_338">
<rect width="709" height="75" fill="white" transform="translate(709)"/>
</clipPath>
</defs>
</svg>
